<svg width="32" height="32" viewBox="0 0 512 512" xmlns="http://www.w3.org/2000/svg">
  <defs>
    <linearGradient id="bgGradient" x1="0%" y1="0%" x2="100%" y2="100%">
      <stop offset="0%" stop-color="#FFB74D" stop-opacity="1"/>
      <stop offset="100%" stop-color="#FF5722" stop-opacity="1"/>
    </linearGradient>
    <linearGradient id="bowlGrad" x1="0%" y1="0%" x2="0%" y2="100%">
      <stop offset="0%" stop-color="#FFFFFF" stop-opacity="1"/>
      <stop offset="100%" stop-color="#FFF3D6" stop-opacity="1"/>
    </linearGradient>
  </defs>

  <circle cx="256" cy="256" r="256" fill="url(#bgGradient)"/>

  <path d="M196 138 Q 214 112, 196 90" stroke="#FFFFFF" stroke-width="16" fill="none" stroke-linecap="round" opacity="0.95"/>
  <path d="M256 128 Q 274 102, 256 78" stroke="#FFFFFF" stroke-width="16" fill="none" stroke-linecap="round" opacity="0.95"/>
  <path d="M316 138 Q 334 112, 316 90" stroke="#FFFFFF" stroke-width="16" fill="none" stroke-linecap="round" opacity="0.95"/>

  <path d="M116 236 C 116 382, 190 460, 256 460 C 322 460, 396 382, 396 236 Z" fill="url(#bowlGrad)"/>
  <rect x="116" y="196" width="280" height="44" rx="16" fill="#FFFFFF" opacity="0.98"/>

  <g fill="#FF5722" opacity="0.95">
    <circle cx="206" cy="304" r="26"/>
    <rect x="176" y="334" width="60" height="44" rx="22"/>
    <circle cx="306" cy="304" r="26"/>
    <rect x="276" y="334" width="60" height="44" rx="22"/>
  </g>
</svg>
